<?xml version="1.0" encoding="UTF-8"?>
<svg width="110px" height="70px" viewBox="0 0 110 70" version="1.1" xmlns="http://www.w3.org/2000/svg" xmlns:xlink="http://www.w3.org/1999/xlink">
    <!-- Generator: Sketch 48.2 (47327) - http://www.bohemiancoding.com/sketch -->
    <title>music-link</title>
    <desc>Created with Sketch.</desc>
    <defs></defs>
    <g id="Website" stroke="none" stroke-width="1" fill="none" fill-rule="evenodd">
        <g id="music-link" fill="#FFFFFF" fill-rule="nonzero">
            <path d="M83.7266504,54.5512525 C82.6680404,56.9968576 81.4149918,59.2480241 79.9631839,61.3177147 C77.9842313,64.1392343 76.3639099,66.0922617 75.1151822,67.1767968 C73.1794383,68.95699 71.1054269,69.8686908 68.8845064,69.9205411 C67.2901101,69.9205411 65.3673287,69.4668511 63.1291247,68.5465085 C60.8835753,67.6304868 58.819934,67.1767968 56.9330157,67.1767968 C54.9540632,67.1767968 52.8316582,67.6304868 50.5614799,68.5465085 C48.2878449,69.4668511 46.4562336,69.9464662 45.0558438,69.9939957 C42.9260934,70.0847336 40.8032563,69.1471077 38.684308,67.1767968 C37.3318797,65.9972029 35.6402642,63.9750418 33.6137822,61.1103135 C31.439527,58.0511467 29.6519884,54.5037231 28.2515986,50.4594009 C26.7518291,46.0910144 26,41.8608953 26,37.765587 C26,33.0744325 27.0136731,29.0283819 29.0440438,25.6378054 C30.6397363,22.9143692 32.7625734,20.766039 35.4194684,19.1889262 C38.0763634,17.6118134 40.9471408,16.808134 44.0387141,16.7567158 C45.7303296,16.7567158 47.9486576,17.2799716 50.7053644,18.3083355 C53.4542937,19.3401562 55.2193638,19.863412 55.9932293,19.863412 C56.5717921,19.863412 58.532597,19.2515786 61.8566323,18.0318007 C65.0000559,16.9006003 67.6530621,16.4322194 69.8264532,16.61672 C75.7157814,17.0920143 80.140339,19.4136108 83.0828427,23.5962004 C77.8157179,26.7875854 75.2102411,31.2575121 75.2620914,36.9917215 C75.3096208,41.4581914 76.9299422,45.1749927 80.1144139,48.1261381 C81.5575801,49.4958497 83.1692598,50.5544597 84.9624155,51.3062889 C84.5735383,52.4340325 84.1630569,53.5142468 83.7266504,54.5512525 Z M70.2196512,1.40038977 C70.2196512,4.90119138 68.9406775,8.16987653 66.3913718,11.1953407 C63.3149216,14.7920221 59.5937995,16.8703543 55.5585511,16.5424013 C55.5071329,16.122414 55.477319,15.6803903 55.477319,15.2158981 C55.477319,11.8551355 56.9403612,8.2584541 59.5384925,5.31767879 C60.8356138,3.82871144 62.485317,2.59065627 64.4858739,1.60303797 C66.4821098,0.630153794 68.3703244,0.0921206726 70.1461966,0 C70.1980469,0.467992029 70.2196512,0.936027266 70.2196512,1.40034657 L70.2196512,1.40038977 Z" id="Shape"></path>
        </g>
    </g>
</svg>