<?xml version="1.0" encoding="UTF-8"?>
<svg width="110px" height="70px" viewBox="0 0 110 70" version="1.1" xmlns="http://www.w3.org/2000/svg" xmlns:xlink="http://www.w3.org/1999/xlink">
    <!-- Generator: Sketch 48.2 (47327) - http://www.bohemiancoding.com/sketch -->
    <title>music-link</title>
    <desc>Created with Sketch.</desc>
    <defs>
        <linearGradient x1="50%" y1="0.763313138%" x2="50%" y2="100%" id="linearGradient-1">
            <stop stop-color="#FF9200" offset="0%"></stop>
            <stop stop-color="#FF6400" offset="100%"></stop>
        </linearGradient>
    </defs>
    <g id="Website" stroke="none" stroke-width="1" fill="none" fill-rule="evenodd">
        <g id="music-link" fill="url(#linearGradient-1)" fill-rule="nonzero">
            <path d="M1.59649358,35.6636195 C1.35292068,35.6636195 1.15299038,35.8594215 1.1223226,36.1295338 L0,46.3572367 L1.1223226,56.3590596 C1.15299038,56.6244538 1.35292068,56.8202557 1.59649358,56.8202557 C1.83593813,56.8202557 2.03174007,56.6291719 2.07066456,56.3590596 L3.34101815,46.3572367 L2.07066456,36.1248157 C2.03115031,35.8552931 1.83534836,35.6636195 1.59649358,35.6636195 Z M10.5797925,33.2320189 C10.2271131,33.2320189 9.94048736,33.5145163 9.91394794,33.889017 L8.90898855,46.3578264 L9.91394794,58.4220572 C9.9398976,58.7959682 10.2271131,59.0778758 10.5797925,59.0778758 C10.9324719,59.0778758 11.2190977,58.7953784 11.2497654,58.4220572 L12.3903707,46.3578264 L11.2497654,33.8848886 C11.2196874,33.5145163 10.9324719,33.2320189 10.5797925,33.2320189 Z M19.7164303,26.6885773 C19.2552342,26.6885773 18.8766051,27.0624883 18.8547838,27.5455057 L17.9630593,46.3660832 L18.8547838,58.5252661 C18.8766051,59.0000268 19.2552342,59.3780661 19.7164303,59.3780661 C20.16878,59.3780661 20.5474091,58.9982575 20.5774871,58.5205479 L20.5774871,58.5252661 L21.5824465,46.3660832 L20.5774871,27.5413774 C20.5468193,27.063078 20.16878,26.6885773 19.7164303,26.6885773 Z M28.9957912,20.2630888 C28.4213602,20.2630888 27.9560357,20.7242849 27.9389325,21.3158191 L27.1598531,46.3702115 L27.9389325,58.3288744 C27.9560357,58.9115621 28.42195,59.373348 28.9957912,59.373348 C29.5613758,59.373348 30.0267003,58.9121518 30.0485216,58.3253358 L30.0485216,58.334772 L30.9225531,46.3702115 L30.0485216,21.3158191 C30.0267003,20.7242849 29.5613758,20.2630888 28.9957912,20.2630888 Z M34.8427204,58.2516152 L34.8427204,58.2604616 L34.8427204,58.2516152 Z M38.4190548,19.888588 C37.736107,19.888588 37.1834973,20.4370694 37.1705225,21.132992 L36.5088063,46.3702115 L37.1705225,58.1472268 C37.1834973,58.839021 37.736107,59.3880921 38.4190548,59.3880921 C39.1020025,59.3880921 39.6504839,58.839021 39.6723052,58.1395598 L39.6723052,58.1519449 L40.4118704,46.3708013 L39.6723052,21.1335817 C39.6498941,20.4370694 39.1020025,19.888588 38.4190548,19.888588 Z M48.7906603,16.2426614 C48.5548988,16.0851407 48.2780168,16.0004354 47.9944777,15.9990885 C47.7072622,15.9990885 47.4377396,16.085784 47.2112699,16.233815 C46.8037083,16.5000938 46.5555774,16.9519044 46.5495537,17.4387047 L46.5407072,17.7129453 L46.0010723,46.369032 C46.0010723,46.3861352 46.5489639,57.998606 46.5489639,57.998606 L46.5489639,58.0457872 C46.5666568,58.3731067 46.6881484,58.6721175 46.8886685,58.9074337 C47.1597077,59.2396719 47.5651216,59.4332927 47.9938879,59.4352733 C48.3854918,59.4352733 48.7422995,59.2695494 49.0029756,59.0082835 C49.2636517,58.7470177 49.4293757,58.3902099 49.4382221,57.9938879 L49.4989679,56.8408975 L50.0474493,46.3737501 L49.4382221,17.4387047 C49.4289414,16.9586423 49.1875797,16.5128484 48.7906603,16.2426614 Z M49.4388119,57.9991958 L49.4388119,57.9938879 L49.4388119,57.9991958 L49.4388119,57.9909391 L49.4388119,57.9938879 L49.4388119,57.9991958 Z M95.9901348,31.4397233 C94.0710399,31.4397233 92.2398199,31.8266091 90.5696057,32.5272498 C89.4555398,19.9021526 78.866311,10 65.9545881,10 C62.8887871,10.0034817 59.8496765,10.5698041 56.9883924,11.670804 C55.9309439,12.079511 55.6525749,12.5017827 55.6401898,13.3197866 L55.6401898,57.7862906 C55.6525749,58.643219 56.3172399,59.3090636 57.1535265,59.3916307 C57.1883227,59.3963488 95.9907246,59.3916307 95.9907246,59.3916307 C103.730209,59.3916307 110,53.1920221 110,45.4525373 C109.99941,37.7130526 103.72962,31.4397233 95.9901348,31.4397233 Z" id="soundcloud"></path>
        </g>
    </g>
</svg>