<?xml version="1.0" encoding="UTF-8"?>
<svg width="110px" height="70px" viewBox="0 0 110 70" version="1.1" xmlns="http://www.w3.org/2000/svg" xmlns:xlink="http://www.w3.org/1999/xlink">
    <!-- Generator: Sketch 48.2 (47327) - http://www.bohemiancoding.com/sketch -->
    <title>music-link</title>
    <desc>Created with Sketch.</desc>
    <defs></defs>
    <g id="Website" stroke="none" stroke-width="1" fill="none" fill-rule="evenodd">
        <g id="music-link" fill="#8092A6" fill-rule="nonzero">
            <path d="M55.0006269,3.48015672e-15 C35.6707248,3.48015672e-15 20,15.6703068 20,35.000209 C20,54.330947 35.6707248,70 55.0006269,70 C74.3326188,70 90.0016718,54.330947 90.0016718,35.000209 C90.0016718,15.6715607 74.3326188,0.00167181147 55.000209,0.00167181147 L55.0006269,3.48015672e-15 Z M71.0516888,50.4803473 C70.4247595,51.5085113 69.0789513,51.8345145 68.0507872,51.2034057 C59.832998,46.1837918 49.4878286,45.04696 37.3045025,47.8305261 C36.1304729,48.0980159 34.9602049,47.3624189 34.6927151,46.1879713 C34.4239714,45.0135238 35.1566428,43.8432557 36.333598,43.5757659 C49.6662945,40.5284715 61.1027388,41.8412615 70.3286304,47.4794457 C71.3567944,48.1105545 71.6827977,49.4521832 71.0516888,50.4803473 Z M75.3357057,40.9489321 C74.5457748,42.2341372 72.8656043,42.6395515 71.582489,41.8496206 C62.1743699,36.0655708 47.8331532,34.3908337 36.7051581,37.7687288 C35.2619669,38.2046536 33.7376928,37.3913173 33.2996782,35.9506338 C32.8650072,34.5074425 33.6787614,32.9860941 35.119445,32.5472436 C47.8306455,28.6903745 63.6330254,30.5586239 74.437107,37.1978052 C75.7202224,37.9877361 76.1256366,39.6679066 75.3357057,40.9493501 L75.3357057,40.9489321 Z M75.7035042,31.0250593 C64.4229564,24.3248569 45.8115152,23.7087943 35.0412878,26.9776037 C33.3117988,27.5021345 31.4828371,26.5257966 30.9587242,24.7963077 C30.4346113,23.0659828 31.4101133,21.2382749 33.1408561,20.7124902 C45.5043198,16.9592735 66.0571521,17.6844217 79.0446195,25.3943982 C80.6035836,26.3176561 81.1134861,28.3267556 80.1898103,29.8802864 C79.270314,31.4359069 77.2557812,31.9487351 75.705176,31.0250593 L75.7035042,31.0250593 Z" id="Shape"></path>
        </g>
    </g>
</svg>