<?xml version="1.0" encoding="UTF-8"?>
<svg width="110px" height="70px" viewBox="0 0 110 70" version="1.1" xmlns="http://www.w3.org/2000/svg" xmlns:xlink="http://www.w3.org/1999/xlink">
    <!-- Generator: Sketch 48.2 (47327) - http://www.bohemiancoding.com/sketch -->
    <title>music-link</title>
    <desc>Created with Sketch.</desc>
    <defs>
        <polygon id="path-1" points="32.5326087 16.9347826 32.5326087 43.673913 55.7065217 28.9673913"></polygon>
    </defs>
    <g id="Website" stroke="none" stroke-width="1" fill="none" fill-rule="evenodd">
        <g id="music-link">
            <g id="Group-4" transform="translate(14.000000, 6.000000)">
                <mask id="mask-2" fill="white">
                    <use xlink:href="#path-1"></use>
                </mask>
                <use id="Path-2" fill="#FFFFFF" xlink:href="#path-1"></use>
                <path d="M32.7358468,41.5668592 L32.7358468,17.0146373 L53.9972384,29.2914219 L32.7358468,41.5668592 Z M80.1291936,9.59224848 C79.1880902,6.07169995 76.4153046,3.29824065 72.8940824,2.35713726 C66.5118251,0.647387513 40.9194717,0.647387513 40.9194717,0.647387513 C40.9194717,0.647387513 15.327792,0.647387513 8.94553463,2.35713726 C5.42431244,3.29824065 2.65152679,6.07169995 1.71042341,9.59224848 C0,15.9751795 0,29.2907482 0,29.2907482 C0,29.2907482 0,42.6069906 1.71042341,48.989248 C2.65152679,52.5097965 5.42431244,55.2839295 8.94553463,56.2243592 C15.327792,57.9347826 40.9194717,57.9347826 40.9194717,57.9347826 C40.9194717,57.9347826 66.5118251,57.9347826 72.8940824,56.2243592 C76.4153046,55.2839295 79.1880902,52.5097965 80.1291936,48.989248 C81.839617,42.6069906 81.839617,29.2907482 81.839617,29.2907482 C81.839617,29.2907482 81.839617,15.9751795 80.1291936,9.59224848 Z" id="Fill-1" fill="#FF0000"></path>
            </g>
        </g>
    </g>
</svg>